<svg width="168" height="68" viewBox="0 0 168 68" fill="none" xmlns="http://www.w3.org/2000/svg">
<g clip-path="url(#clip0_221_9612)">
<mask id="mask0_221_9612" style="mask-type:luminance" maskUnits="userSpaceOnUse" x="0" y="0" width="292" height="68">
<path d="M291.244 0H0V68H291.244V0Z" fill="white"/>
</mask>
<g mask="url(#mask0_221_9612)">
<path d="M50.8931 13.7967C51.7494 13.8002 52.5696 14.1436 53.1739 14.7515C53.7782 15.3594 54.1174 16.1824 54.1174 17.0403V25.0898H60.8527V17.0403C60.8527 14.3914 59.8043 11.8507 57.9373 9.97499C56.0704 8.09929 53.5372 7.04171 50.8931 7.03406H42.8359V13.7967H50.8931Z" fill="white" fill-opacity="0.8"/>
<path d="M54.1242 51.002C54.1242 51.8587 53.7844 52.6803 53.1798 53.286C52.5752 53.8917 51.755 54.232 50.8999 54.232H42.8359V60.964H50.8931C53.5326 60.964 56.0642 59.9151 57.9325 58.0475C59.8011 56.1801 60.8535 53.6462 60.8594 51.002V42.91H54.1242V51.002Z" fill="white" fill-opacity="0.8"/>
<path d="M13.7531 17.0403C13.7535 16.1825 14.0929 15.3598 14.6971 14.752C15.3013 14.1442 16.1211 13.8007 16.9773 13.7967H25.0345V7.03406H16.9841C14.3392 7.04035 11.8047 8.09736 9.93666 9.97321C8.0686 11.849 7.01951 14.3906 7.01953 17.0403V25.0898H13.7531V17.0403Z" fill="white" fill-opacity="0.8"/>
<path d="M16.9841 54.2337C16.129 54.2337 15.3089 53.8934 14.7043 53.2877C14.0996 52.682 13.7599 51.8604 13.7599 51.0037V42.91H7.01953V51.002C7.02493 53.6462 8.07708 56.1802 9.94517 58.048C11.8133 59.916 14.3447 60.9652 16.9841 60.9657H25.043V54.2337H16.9841Z" fill="white" fill-opacity="0.8"/>
<path d="M30.0586 50.1794L15.6836 35.7651L20.4351 31.0051L30.0535 40.6492L47.4407 23.214L52.1922 27.974L30.0586 50.1794Z" fill="white" fill-opacity="0.8"/>
<path d="M95.1197 44.0031C96.052 45.0884 96.549 46.4817 96.5146 47.9131C96.5198 49.1439 96.1711 50.3504 95.51 51.3879C94.7603 52.5243 93.6998 53.4207 92.4554 53.9702C90.8525 54.6728 89.1132 55.0085 87.3645 54.9528C85.8822 54.9511 84.4057 54.7683 82.9677 54.4088C81.6376 54.0977 80.3647 53.579 79.1953 52.872L81.3573 48.3687C82.2076 48.9475 83.1448 49.3865 84.1335 49.6692C85.125 49.9648 86.1536 50.1171 87.188 50.1214C88.0369 50.1642 88.8806 49.9657 89.6215 49.5485C89.9034 49.3819 90.1357 49.1427 90.2938 48.8556C90.452 48.5686 90.5304 48.2442 90.5209 47.9165C90.5209 46.5485 89.4501 45.8634 87.3085 45.8612H84.8089V42.0855L88.5592 38.0055H80.278V33.3849H95.4659V37.1249L91.1131 41.8424C92.6518 42.095 94.062 42.8556 95.1197 44.0031Z" fill="white" fill-opacity="0.8"/>
<path d="M119.919 33.3849V54.4887H113.932V46.259H105.774V54.4887H99.7891V33.3849H105.774V41.3137H113.932V33.3849H119.919Z" fill="white" fill-opacity="0.8"/>
<path d="M143.794 54.4882H137.81V49.8064H129.56V54.4882H123.664V43.0693C123.658 42.0695 123.763 41.0723 123.978 40.096C124.174 39.2188 124.49 38.3732 124.918 37.5834C125.322 36.8434 125.831 36.1665 126.43 35.574C127.029 34.9873 127.712 34.4925 128.455 34.1052C129.233 33.7033 130.06 33.404 130.916 33.2144C131.84 33.0107 132.784 32.9104 133.731 32.9152C134.677 32.9104 135.62 33.0107 136.544 33.2144C137.399 33.4045 138.225 33.704 139.003 34.1052C139.747 34.4909 140.43 34.9848 141.029 35.5706C141.628 36.1632 142.138 36.8402 142.541 37.58C142.97 38.3698 143.286 39.2154 143.482 40.0926C143.696 41.0684 143.801 42.0651 143.794 43.0642V54.4882ZM133.7 37.8707C133.142 37.8438 132.585 37.935 132.064 38.1381C131.544 38.3414 131.072 38.6524 130.68 39.0505C129.87 40.0297 129.469 41.2845 129.561 42.5525V45.1824H137.81V42.5525C137.904 41.2841 137.503 40.0289 136.692 39.0505C136.304 38.6544 135.837 38.3447 135.322 38.1413C134.806 37.938 134.254 37.8459 133.7 37.8707Z" fill="white" fill-opacity="0.8"/>
<path d="M153.475 44.4698V54.4879H147.535V33.3841H153.475V43.3869H153.624L161.024 33.3841H168.136L160.015 43.5722L168.367 54.4862H160.632L153.475 44.4698Z" fill="white" fill-opacity="0.8"/>
<path d="M89.9648 16.033V26.8195H86.3383V23.3685C85.6952 23.5705 85.0266 23.6798 84.3529 23.6932C83.0345 23.7856 81.729 23.3845 80.6891 22.5678C80.2535 22.1452 79.9155 21.6327 79.6983 21.0656C79.4811 20.4986 79.3901 19.891 79.4317 19.2851V16.033H83.0564V18.8822C83.0128 19.4058 83.1693 19.9266 83.4942 20.3391C83.67 20.5066 83.8794 20.6351 84.1084 20.716C84.3375 20.7968 84.581 20.8282 84.823 20.8083C85.339 20.8257 85.8537 20.7426 86.3383 20.5635V16.033H89.9648Z" fill="white" fill-opacity="0.8"/>
<path d="M101.195 24.0774V26.8195H92.3008V16.033H100.996V18.7768H95.8457V20.0416H100.37V22.663H95.8457V24.0808L101.195 24.0774Z" fill="white" fill-opacity="0.8"/>
<path d="M105.801 26.1035C104.893 25.6501 104.132 24.948 103.607 24.0786C103.081 23.2092 102.813 22.2082 102.833 21.1922C102.813 20.1757 103.081 19.1746 103.607 18.3049C104.132 17.4353 104.893 16.7328 105.801 16.2791C106.771 15.7922 107.844 15.5467 108.929 15.5634C109.904 15.5458 110.873 15.7341 111.771 16.1159C112.582 16.4675 113.292 17.0183 113.835 17.7173L111.508 19.7574C111.234 19.375 110.875 19.0622 110.459 18.8441C110.043 18.6258 109.581 18.5084 109.112 18.5011C108.767 18.4852 108.423 18.542 108.101 18.6677C107.78 18.7931 107.488 18.9849 107.245 19.2304C107.005 19.495 106.82 19.8046 106.7 20.1412C106.579 20.478 106.527 20.835 106.544 21.1922C106.526 21.549 106.579 21.9058 106.699 22.2422C106.819 22.5787 107.005 22.8879 107.245 23.1523C107.489 23.3972 107.78 23.5886 108.102 23.7143C108.423 23.8399 108.767 23.8969 109.112 23.8816C109.581 23.8732 110.042 23.7551 110.457 23.5363C110.872 23.3175 111.23 23.0044 111.503 22.6219L113.829 24.6619C113.286 25.3595 112.577 25.9091 111.766 26.2599C110.868 26.6422 109.899 26.8311 108.923 26.8141C107.841 26.8317 106.77 26.588 105.801 26.1035Z" fill="white" fill-opacity="0.8"/>
<path d="M124.834 18.8533H121.695V26.8195H118.143V18.8533H115.004V16.033H124.834V18.8533Z" fill="white" fill-opacity="0.8"/>
<path d="M137.236 16.033V26.8195H133.55V22.8449H130.156V26.8195H126.469V16.033H130.149V19.8546H133.543V16.033H137.236Z" fill="white" fill-opacity="0.8"/>
<path d="M145.222 26.8195H139.812V16.033H143.429V19.3463H145.689C146.299 19.3373 146.907 19.413 147.496 19.5707C147.985 19.704 148.441 19.9354 148.837 20.2507C149.202 20.5474 149.487 20.9307 149.667 21.3659C149.86 21.8569 149.955 22.3815 149.945 22.9095C149.956 23.4835 149.849 24.0535 149.629 24.584C149.42 25.066 149.094 25.4886 148.683 25.8148C148.237 26.1623 147.728 26.4192 147.184 26.5713C146.545 26.7458 145.885 26.8292 145.222 26.8195ZM143.429 21.8895V24.2695H144.973C145.146 24.2796 145.318 24.2524 145.48 24.1898C145.641 24.1273 145.787 24.0307 145.908 23.9069C146.029 23.783 146.122 23.6346 146.181 23.4716C146.24 23.3085 146.263 23.135 146.249 22.9622C146.259 22.8113 146.235 22.6602 146.178 22.5199C146.121 22.3798 146.034 22.2544 145.922 22.153C145.643 21.9545 145.305 21.8595 144.965 21.8844L143.429 21.8895ZM154.559 26.8195H150.941V16.033H154.559V26.8195Z" fill="white" fill-opacity="0.8"/>
<path d="M167.67 26.8192H164.075V21.2194L160.357 26.8192H156.902V16.0208H160.497V21.6308L164.23 16.0208H167.67V26.8192ZM162.278 15.4037C161.365 15.4829 160.453 15.2485 159.69 14.739C159.417 14.4888 159.204 14.1799 159.067 13.8354C158.93 13.4909 158.873 13.1198 158.9 12.75H161.331C161.308 13.0191 161.382 13.2878 161.54 13.5065C161.64 13.5937 161.758 13.6593 161.884 13.6993C162.011 13.7394 162.144 13.753 162.277 13.7394C162.548 13.7647 162.818 13.6809 163.028 13.5065C163.197 13.2925 163.278 13.0218 163.254 12.75H165.686C165.712 13.1214 165.653 13.4938 165.513 13.8387C165.373 14.1835 165.156 14.4916 164.878 14.739C164.11 15.2465 163.195 15.4806 162.278 15.4037Z" fill="white" fill-opacity="0.8"/>
</g>
</g>
<defs>
<clipPath id="clip0_221_9612">
<rect width="168" height="68" fill="white"/>
</clipPath>
</defs>
</svg>
