<svg width="83" height="68" viewBox="0 0 83 68" fill="none" xmlns="http://www.w3.org/2000/svg">
<path d="M19.2325 26.167V18.8858H0.267578V26.167H4.61857V41.7419H0.267578V49.0231H19.2325V41.7419H14.8815V26.167H19.2325Z" fill="white" fill-opacity="0.8"/>
<path d="M40.1619 30.4497C38.9897 30.108 32.9583 28.3781 31.914 28.0364C30.8697 27.6947 30.0172 27.2035 30.0172 26.5842C30.0172 25.9649 30.9762 25.3028 32.9157 25.3028C39.0324 25.3028 41.9708 29.0829 41.9708 29.0829C41.9708 29.0829 42.3019 29.5249 42.4129 29.6835H48.3142V19.3703H41.9789V21.2466C41.4951 20.9118 37.9227 18.5755 32.3828 18.5755C25.0726 18.5755 21.002 22.377 21.002 28.0578C21.002 33.7386 26.1383 36.0878 27.5662 36.6858C28.9942 37.2838 34.578 38.8642 36.965 39.6117C39.352 40.3591 40.2259 40.893 40.2259 41.2775C40.2259 41.6619 39.1815 42.6656 36.1978 42.6656C31.0004 42.6656 28.3239 39.5944 27.8542 38.9997V38.995C27.7048 38.7945 27.5296 38.5572 27.4701 38.4678C27.4012 38.3644 27.2414 38.135 27.1306 37.9764H21.2292V48.9897H27.8542V46.6899C28.625 47.204 32.5709 49.6705 37.306 49.6705C42.5915 49.6705 49.3263 47.364 49.3263 40.1669C49.3263 32.9698 41.3341 30.7914 40.1619 30.4497Z" fill="white" fill-opacity="0.8"/>
<path d="M66.147 18.4741C57.3359 18.4741 50.1094 22.8886 50.1094 34.1574C50.1094 45.4263 57.9543 49.6472 66.1855 49.6472C74.4167 49.6472 82.1844 45.4649 82.1844 34.2738C82.1844 23.0826 74.4171 18.4741 66.147 18.4741ZM66.2244 42.1347C63.2099 42.1347 61.2777 41.4376 61.2777 34.1188C61.2777 26.7999 62.7076 26.0254 66.3401 26.0254C68.5428 26.0254 71.2095 26.1802 71.2095 33.8865C71.2095 41.5927 69.2388 42.1347 66.2244 42.1347Z" fill="white" fill-opacity="0.8"/>
<path d="M12.9047 15.5624C14.8854 12.6316 17.3211 10.0336 20.1134 7.87609C21.2425 8.71258 22.4426 9.47133 23.7043 10.1476C21.5905 12.5087 19.6965 15.1246 19.3828 15.5624H20.6512C21.4125 14.5342 22.9872 12.4659 24.6477 10.6321C26.4627 11.5262 28.3915 12.2574 30.4041 12.8144C29.8684 13.9533 29.4635 14.9492 29.2258 15.5624H30.3277C30.5809 14.9309 30.9519 14.0502 31.4148 13.077C33.9822 13.7056 36.6724 14.0578 39.4244 14.1115V15.5625H40.4474V14.1165C43.1794 14.0965 45.8547 13.7845 48.413 13.1983C48.8492 14.1228 49.2002 14.9574 49.4429 15.5624H50.5448C50.3163 14.9734 49.9341 14.0321 49.4292 12.949C51.4778 12.4149 53.4435 11.7028 55.2948 10.8228C56.8917 12.6078 58.3846 14.5699 59.1196 15.5624H60.3878C60.0838 15.1381 58.2879 12.6569 56.2472 10.3505C57.6502 9.62391 58.9805 8.79715 60.2239 7.87609C63.0162 10.0336 65.4521 12.6316 67.4327 15.5624H68.6632C62.6125 6.20465 52.1004 0 40.1685 0C28.2366 0 17.7245 6.20465 11.6738 15.5624H12.9047ZM30.8606 11.8769C28.9462 11.3587 27.1094 10.6794 25.3778 9.8484C25.6131 9.6034 25.8482 9.36609 26.0806 9.14142C28.4517 6.85013 32.3517 4.33417 33.2066 3.79257C33.9004 4.17442 34.6574 4.49733 35.4627 4.75361C34.8373 5.5754 33.6094 7.2436 32.2721 9.3596C31.7516 10.1831 31.2774 11.0486 30.8606 11.8769ZM39.4244 13.086C36.8335 13.0341 34.3002 12.7109 31.8788 12.1354C32.2575 11.3936 32.68 10.6302 33.1364 9.9082C34.677 7.47066 36.0669 5.6405 36.53 5.04508C37.454 5.26257 38.425 5.40011 39.4244 5.44504V13.086ZM40.4474 13.0912V5.45666C41.4334 5.43992 42.3981 5.33536 43.3214 5.1493C43.8506 5.83527 45.1751 7.59914 46.6344 9.9082C47.1145 10.668 47.5573 11.4734 47.951 12.2516C45.5381 12.7864 43.0194 13.072 40.4474 13.0912ZM48.9765 12.0088C48.544 11.1409 48.0466 10.2268 47.4985 9.3596C46.2303 7.35277 45.06 5.74848 44.4092 4.88704C45.2656 4.64597 46.0741 4.33263 46.8165 3.95351C48.0166 4.72439 51.5023 7.02747 53.69 9.14142C53.9804 9.42213 54.2747 9.72197 54.5686 10.0329C52.8008 10.8508 50.9271 11.5128 48.9765 12.0088ZM59.3673 7.23523C58.1672 8.10333 56.8848 8.88104 55.5346 9.56479C55.1573 9.15919 54.7768 8.76743 54.4001 8.40351C52.354 6.42624 49.3073 4.35193 47.8146 3.37791C48.3216 3.04851 48.7854 2.68425 49.1989 2.2877C52.8938 3.34562 56.3241 5.03722 59.3673 7.23523ZM40.1688 1.02511C42.8702 1.02511 45.4958 1.35537 48.0098 1.97351C46.1019 3.52638 43.2431 4.43736 40.1688 4.43736C37.0806 4.43736 34.2296 3.52928 32.3243 1.97436C34.8392 1.35571 37.4659 1.02511 40.1688 1.02511ZM31.1383 2.2877C31.4749 2.61096 31.8433 2.91336 32.2425 3.19219C30.89 4.06422 27.559 6.28888 25.3706 8.40334C25.0555 8.7078 24.7379 9.03207 24.4214 9.36729C23.2111 8.73223 22.0568 8.02098 20.9705 7.23523C24.0133 5.03722 27.4434 3.34579 31.1383 2.2877Z" fill="white" fill-opacity="0.8"/>
<path d="M67.4335 52.4379C65.4949 55.307 63.1199 57.8568 60.4016 59.9869C59.107 59.0114 57.7174 58.1394 56.2479 57.3777C58.0182 55.3767 59.6043 53.2441 60.1915 52.438H58.9176C58.1322 53.4888 56.7575 55.2713 55.2953 56.9058C53.444 56.0254 51.4785 55.3128 49.4296 54.7789C49.8628 53.8493 50.205 53.0254 50.4379 52.438H49.3327C49.0984 53.0107 48.7869 53.7374 48.4127 54.5306C45.8559 53.9453 43.1809 53.6335 40.4468 53.6137V52.438H39.4238V53.6183C36.6695 53.6718 33.9795 54.0237 31.4137 54.6514C31.014 53.8113 30.6827 53.0396 30.4367 52.438H29.3313C29.5753 53.0538 29.9395 53.9292 30.4026 54.9137C28.3895 55.4708 26.4599 56.201 24.6451 57.0956C23.1202 55.4112 21.668 53.5296 20.8519 52.4379H19.5779C20.1845 53.2708 21.86 55.5229 23.7035 57.5817C22.3758 58.2941 21.1151 59.097 19.9344 59.9868C17.2159 57.8566 14.8409 55.3068 12.9025 52.4377H11.6738C17.7247 61.7954 28.2364 68.0001 40.1682 68.0001C52.0998 68.0001 62.6116 61.7956 68.6625 52.4377L67.4335 52.4379ZM48.9762 55.7196C50.9274 56.2154 52.8012 56.8773 54.5691 57.6955C54.2747 58.0068 53.9802 58.3071 53.6893 58.5884C51.5085 60.6955 48.0338 62.9933 46.8247 63.7703C46.0823 63.3896 45.2728 63.0763 44.4136 62.8352C45.0656 61.9722 46.2329 60.371 47.4976 58.3698C48.0461 57.5024 48.5435 56.5879 48.9762 55.7196ZM40.4466 54.6386C43.0206 54.6577 45.5393 54.9426 47.9506 55.4766C47.5568 56.2554 47.114 57.0609 46.6334 57.8214C45.1761 60.1272 43.8537 61.8892 43.3229 62.5772C42.4022 62.3934 41.4375 62.2897 40.4464 62.2733V54.6386H40.4466ZM39.4236 54.6437V62.2839C38.4204 62.3285 37.4483 62.4643 36.5256 62.6803C36.0593 62.0804 34.6738 60.2554 33.1355 57.8214C32.6788 57.0989 32.2559 56.335 31.8771 55.5925C34.2972 55.0177 36.8304 54.6955 39.4236 54.6437ZM30.8592 55.8518C31.2762 56.6806 31.7507 57.5462 32.2713 58.37C33.6075 60.4843 34.8346 62.1515 35.4605 62.974C34.654 63.2301 33.8978 63.5533 33.2044 63.9362C32.3463 63.3922 28.4497 60.8781 26.0799 58.5884C25.8472 58.3635 25.612 58.1259 25.3764 57.8807C27.1077 57.0493 28.9443 56.3698 30.8592 55.8518ZM20.7843 60.6295C21.9245 59.7896 23.1401 59.0324 24.4191 58.3611C24.7358 58.6967 25.0542 59.0215 25.3696 59.3263C27.5575 61.4402 30.8875 63.6644 32.2404 64.5367C31.7584 64.8748 31.319 65.2466 30.9286 65.6502C27.2386 64.5666 23.8158 62.8513 20.7843 60.6295ZM40.168 66.9751C37.3781 66.9751 34.6685 66.624 32.08 65.9661C33.9701 64.3016 36.9716 63.2924 40.168 63.2924C43.3604 63.2924 46.3648 64.3023 48.2552 65.9662C45.6668 66.6242 42.9575 66.9751 40.168 66.9751ZM49.4067 65.6502C48.9426 65.1709 48.4122 64.7339 47.8204 64.3473C49.3157 63.3715 52.3562 61.3005 54.3993 59.3261C54.7761 58.962 55.1567 58.5701 55.5343 58.1641C56.9534 58.8834 58.2983 59.7062 59.5515 60.6294C56.5198 62.8515 53.0968 64.5668 49.4067 65.6502Z" fill="white" fill-opacity="0.8"/>
</svg>
