<svg width="88" height="68" viewBox="0 0 88 68" fill="none" xmlns="http://www.w3.org/2000/svg">
<path fill-rule="evenodd" clip-rule="evenodd" d="M68.5469 26.6158V33.3253H73.4265V41.2532H83.1835V33.3253H87.4531V26.6158H68.5469Z" fill="white" fill-opacity="0.8"/>
<path fill-rule="evenodd" clip-rule="evenodd" d="M79.2086 21.53V8.57829C46.3082 -9.92292 0 2.90461 0 33.6182C0 67.8666 46.3067 76.4186 79.2086 59.7657V46.1988C67.0229 50.5151 46.3068 49.2819 46.3068 33.8637C46.3068 18.4455 64.3887 16.2911 79.2086 21.53ZM26.1111 38.7862C24.8912 38.7862 24.2812 38.7862 23.0613 38.1763V31.1023C23.3393 31.2501 23.6713 31.4675 26.1111 31.4675C28.5501 31.4675 31.5999 29.6384 31.5999 25.9786C31.5999 22.3189 28.6566 20.4898 26.1111 20.4898C23.6018 20.4898 20.6215 22.9289 20.6215 25.9786L20.4862 54.0506C17.3012 53.9279 13.9897 52.0374 13.3894 48.5965L13.3797 25.0537C13.4204 18.8366 19.0209 13.1718 25.8397 13.1718C32.7074 13.1718 38.9171 18.6607 38.9171 26.1095C38.9178 33.5576 32.2099 38.7862 26.1111 38.7862Z" fill="white" fill-opacity="0.8"/>
</svg>
